<svg aria-hidden="true" style="position: absolute; width: 0; height: 0; overflow: hidden;" version="1.1" xmlns="http://www.w3.org/2000/svg" xmlns:xlink="http://www.w3.org/1999/xlink">
<defs>
<symbol id="icon-search" viewBox="0 0 26 28">
<title>search</title>
<path d="M18 13c0-3.859-3.141-7-7-7s-7 3.141-7 7 3.141 7 7 7 7-3.141 7-7zM26 26c0 1.094-0.906 2-2 2-0.531 0-1.047-0.219-1.406-0.594l-5.359-5.344c-1.828 1.266-4.016 1.937-6.234 1.937-6.078 0-11-4.922-11-11s4.922-11 11-11 11 4.922 11 11c0 2.219-0.672 4.406-1.937 6.234l5.359 5.359c0.359 0.359 0.578 0.875 0.578 1.406z"></path>
</symbol>
<symbol id="icon-film" viewBox="0 0 30 28">
<title>film</title>
<path d="M6 25v-2c0-0.547-0.453-1-1-1h-2c-0.547 0-1 0.453-1 1v2c0 0.547 0.453 1 1 1h2c0.547 0 1-0.453 1-1zM6 19v-2c0-0.547-0.453-1-1-1h-2c-0.547 0-1 0.453-1 1v2c0 0.547 0.453 1 1 1h2c0.547 0 1-0.453 1-1zM6 13v-2c0-0.547-0.453-1-1-1h-2c-0.547 0-1 0.453-1 1v2c0 0.547 0.453 1 1 1h2c0.547 0 1-0.453 1-1zM22 25v-8c0-0.547-0.453-1-1-1h-12c-0.547 0-1 0.453-1 1v8c0 0.547 0.453 1 1 1h12c0.547 0 1-0.453 1-1zM6 7v-2c0-0.547-0.453-1-1-1h-2c-0.547 0-1 0.453-1 1v2c0 0.547 0.453 1 1 1h2c0.547 0 1-0.453 1-1zM28 25v-2c0-0.547-0.453-1-1-1h-2c-0.547 0-1 0.453-1 1v2c0 0.547 0.453 1 1 1h2c0.547 0 1-0.453 1-1zM22 13v-8c0-0.547-0.453-1-1-1h-12c-0.547 0-1 0.453-1 1v8c0 0.547 0.453 1 1 1h12c0.547 0 1-0.453 1-1zM28 19v-2c0-0.547-0.453-1-1-1h-2c-0.547 0-1 0.453-1 1v2c0 0.547 0.453 1 1 1h2c0.547 0 1-0.453 1-1zM28 13v-2c0-0.547-0.453-1-1-1h-2c-0.547 0-1 0.453-1 1v2c0 0.547 0.453 1 1 1h2c0.547 0 1-0.453 1-1zM28 7v-2c0-0.547-0.453-1-1-1h-2c-0.547 0-1 0.453-1 1v2c0 0.547 0.453 1 1 1h2c0.547 0 1-0.453 1-1zM30 4.5v21c0 1.375-1.125 2.5-2.5 2.5h-25c-1.375 0-2.5-1.125-2.5-2.5v-21c0-1.375 1.125-2.5 2.5-2.5h25c1.375 0 2.5 1.125 2.5 2.5z"></path>
</symbol>
<symbol id="icon-video-camera" viewBox="0 0 28 28">
<title>video-camera</title>
<path d="M28 5.5v17c0 0.406-0.25 0.766-0.609 0.922-0.125 0.047-0.266 0.078-0.391 0.078-0.266 0-0.516-0.094-0.703-0.297l-6.297-6.297v2.594c0 2.484-2.016 4.5-4.5 4.5h-11c-2.484 0-4.5-2.016-4.5-4.5v-11c0-2.484 2.016-4.5 4.5-4.5h11c2.484 0 4.5 2.016 4.5 4.5v2.578l6.297-6.281c0.187-0.203 0.438-0.297 0.703-0.297 0.125 0 0.266 0.031 0.391 0.078 0.359 0.156 0.609 0.516 0.609 0.922z"></path>
</symbol>
<symbol id="icon-chevron-up" viewBox="0 0 28 28">
<title>chevron-up</title>
<path d="M26.297 20.797l-2.594 2.578c-0.391 0.391-1.016 0.391-1.406 0l-8.297-8.297-8.297 8.297c-0.391 0.391-1.016 0.391-1.406 0l-2.594-2.578c-0.391-0.391-0.391-1.031 0-1.422l11.594-11.578c0.391-0.391 1.016-0.391 1.406 0l11.594 11.578c0.391 0.391 0.391 1.031 0 1.422z"></path>
</symbol>
<symbol id="icon-trash" viewBox="0 0 22 28">
<title>trash</title>
<path d="M8 21.5v-11c0-0.281-0.219-0.5-0.5-0.5h-1c-0.281 0-0.5 0.219-0.5 0.5v11c0 0.281 0.219 0.5 0.5 0.5h1c0.281 0 0.5-0.219 0.5-0.5zM12 21.5v-11c0-0.281-0.219-0.5-0.5-0.5h-1c-0.281 0-0.5 0.219-0.5 0.5v11c0 0.281 0.219 0.5 0.5 0.5h1c0.281 0 0.5-0.219 0.5-0.5zM16 21.5v-11c0-0.281-0.219-0.5-0.5-0.5h-1c-0.281 0-0.5 0.219-0.5 0.5v11c0 0.281 0.219 0.5 0.5 0.5h1c0.281 0 0.5-0.219 0.5-0.5zM7.5 6h7l-0.75-1.828c-0.047-0.063-0.187-0.156-0.266-0.172h-4.953c-0.094 0.016-0.219 0.109-0.266 0.172zM22 6.5v1c0 0.281-0.219 0.5-0.5 0.5h-1.5v14.812c0 1.719-1.125 3.187-2.5 3.187h-13c-1.375 0-2.5-1.406-2.5-3.125v-14.875h-1.5c-0.281 0-0.5-0.219-0.5-0.5v-1c0-0.281 0.219-0.5 0.5-0.5h4.828l1.094-2.609c0.313-0.766 1.25-1.391 2.078-1.391h5c0.828 0 1.766 0.625 2.078 1.391l1.094 2.609h4.828c0.281 0 0.5 0.219 0.5 0.5z"></path>
</symbol>
<symbol id="icon-calendar-plus-o" viewBox="0 0 26 28">
<title>calendar-plus-o</title>
<path d="M24 4c1.094 0 2 0.906 2 2v20c0 1.094-0.906 2-2 2h-22c-1.094 0-2-0.906-2-2v-20c0-1.094 0.906-2 2-2h2v-1.5c0-1.375 1.125-2.5 2.5-2.5h1c1.375 0 2.5 1.125 2.5 2.5v1.5h6v-1.5c0-1.375 1.125-2.5 2.5-2.5h1c1.375 0 2.5 1.125 2.5 2.5v1.5h2zM18 2.5v4.5c0 0.281 0.219 0.5 0.5 0.5h1c0.281 0 0.5-0.219 0.5-0.5v-4.5c0-0.281-0.219-0.5-0.5-0.5h-1c-0.281 0-0.5 0.219-0.5 0.5zM6 2.5v4.5c0 0.281 0.219 0.5 0.5 0.5h1c0.281 0 0.5-0.219 0.5-0.5v-4.5c0-0.281-0.219-0.5-0.5-0.5h-1c-0.281 0-0.5 0.219-0.5 0.5zM24 26v-16h-22v16h22zM14 17h3.5c0.281 0 0.5 0.219 0.5 0.5v1c0 0.281-0.219 0.5-0.5 0.5h-3.5v3.5c0 0.281-0.219 0.5-0.5 0.5h-1c-0.281 0-0.5-0.219-0.5-0.5v-3.5h-3.5c-0.281 0-0.5-0.219-0.5-0.5v-1c0-0.281 0.219-0.5 0.5-0.5h3.5v-3.5c0-0.281 0.219-0.5 0.5-0.5h1c0.281 0 0.5 0.219 0.5 0.5v3.5z"></path>
</symbol>
<symbol id="icon-calendar-minus-o" viewBox="0 0 26 28">
<title>calendar-minus-o</title>
<path d="M18 17.5v1c0 0.281-0.219 0.5-0.5 0.5h-9c-0.281 0-0.5-0.219-0.5-0.5v-1c0-0.281 0.219-0.5 0.5-0.5h9c0.281 0 0.5 0.219 0.5 0.5zM2 26h22v-16h-22v16zM8 7v-4.5c0-0.281-0.219-0.5-0.5-0.5h-1c-0.281 0-0.5 0.219-0.5 0.5v4.5c0 0.281 0.219 0.5 0.5 0.5h1c0.281 0 0.5-0.219 0.5-0.5zM20 7v-4.5c0-0.281-0.219-0.5-0.5-0.5h-1c-0.281 0-0.5 0.219-0.5 0.5v4.5c0 0.281 0.219 0.5 0.5 0.5h1c0.281 0 0.5-0.219 0.5-0.5zM26 6v20c0 1.094-0.906 2-2 2h-22c-1.094 0-2-0.906-2-2v-20c0-1.094 0.906-2 2-2h2v-1.5c0-1.375 1.125-2.5 2.5-2.5h1c1.375 0 2.5 1.125 2.5 2.5v1.5h6v-1.5c0-1.375 1.125-2.5 2.5-2.5h1c1.375 0 2.5 1.125 2.5 2.5v1.5h2c1.094 0 2 0.906 2 2z"></path>
</symbol>
</defs>
</svg>
